<svg width="150" height="36" fill="none" xmlns="http://www.w3.org/2000/svg"><ellipse cx="83.12" cy="10.56" rx="1.95" ry="1.94" fill="#FF4500"/><ellipse cx="104.94" cy="10.56" rx="1.95" ry="1.94" fill="#FF4500"/><path fill-rule="evenodd" clip-rule="evenodd" d="M66.7 7.4c.61 0 1.1.5 1.1 1.1v14.09a1.1 1.1 0 0 1-2.18.2 3.88 3.88 0 0 1-2.84 1.14c-2.9 0-5.26-2.62-5.26-5.84 0-3.21 2.36-5.83 5.26-5.83 1.13 0 2.06.37 2.82 1.12V8.5c0-.6.5-1.1 1.1-1.1ZM55.26 18.82c.95 0 1.5-.7 1.47-1.4a5.13 5.13 0 0 0-.1-.79c-.58-2.52-2.64-4.39-5.1-4.39-2.9 0-5.25 2.62-5.25 5.84 0 3.21 2.35 5.83 5.26 5.83a5.2 5.2 0 0 0 4.07-1.7c.46-.52.36-1.3-.19-1.69-.46-.3-1.03-.2-1.45.15l-.03.03a3.54 3.54 0 0 1-2.4 1.01c-1.47 0-2.72-1.26-3-2.92h6.72v.03Zm-3.74-4.36c1.33 0 2.47 1.02 2.89 2.43h-5.78c.42-1.43 1.57-2.43 2.9-2.43Zm-6.05-2.14c.51.09.92.53.92 1.08 0 .56-.45 1.04-1 1.07h-.22c-2.13-.23-3.68 1.45-3.68 3.5v4.62a1.1 1.1 0 0 1-1.18 1.1 1.12 1.12 0 0 1-1.03-1.14V13.6c0-.6.5-1.1 1.1-1.1.56 0 1.11.42 1.11 1.1v.14a4.27 4.27 0 0 1 3.98-1.42Zm38.75 2.25a1.1 1.1 0 0 0-2.2 0v8.02a1.1 1.1 0 0 0 2.2 0v-8.02ZM62.8 21.75c-1.7 0-3.05-1.63-3.05-3.66 0-2 1.36-3.65 3.05-3.65 1.7 0 3.06 1.62 3.06 3.65s-1.38 3.66-3.06 3.66ZM78.22 7.4c.61 0 1.1.5 1.1 1.1v14.09a1.1 1.1 0 0 1-2.18.2 3.88 3.88 0 0 1-2.84 1.14c-2.9 0-5.26-2.62-5.26-5.84 0-3.21 2.36-5.83 5.26-5.83 1.13 0 2.06.37 2.82 1.12V8.5c0-.6.5-1.1 1.1-1.1ZM74.3 21.75c-1.69 0-3.05-1.63-3.05-3.66 0-2 1.36-3.65 3.05-3.65 1.7 0 3.06 1.62 3.06 3.65S76 21.75 74.3 21.75Zm15.52-7.3v8.16c0 .6-.48 1.08-1.13 1.11-.6 0-1.1-.49-1.1-1.1v-8.15h-.94a.98.98 0 0 1-.97-1.04 1 1 0 0 1 1-.91h.93v-1.6c0-.63.53-1.13 1.18-1.09.59.04 1.03.55 1.03 1.13v1.54h1c.56 0 1.02.48.98 1.04a1 1 0 0 1-1 .92h-.98ZM100.9 22.53v-8.15h.97a1 1 0 0 0 1.01-.91.98.98 0 0 0-.97-1.05h-1.01V10.9c0-.59-.45-1.1-1.03-1.14a1.1 1.1 0 0 0-1.18 1.1v1.6h-.92a1 1 0 0 0-1.01.9.98.98 0 0 0 .97 1.05h.94v8.15c0 .6.5 1.1 1.1 1.1.65-.04 1.13-.51 1.13-1.12Zm34.1-5.11c.04.7-.5 1.4-1.47 1.4v-.03h-6.71c.27 1.66 1.53 2.92 3 2.92 1.22 0 1.98-.66 2.4-1.01l.03-.03c.42-.35.99-.46 1.45-.15.55.39.64 1.18.18 1.69a5.2 5.2 0 0 1-4.06 1.7c-2.91 0-5.27-2.62-5.27-5.83 0-3.22 2.36-5.84 5.27-5.84 2.44 0 4.5 1.87 5.1 4.4.05.25.08.51.09.78Zm-2.31-.53c-.43-1.41-1.57-2.43-2.9-2.43-1.32 0-2.46 1-2.88 2.43h5.78Zm10.83-3.51c0-.55-.4-1-.92-1.08a4.27 4.27 0 0 0-3.97 1.42v-.14a1.1 1.1 0 0 0-2.2 0v8.95c0 .59.43 1.1 1.02 1.14a1.1 1.1 0 0 0 1.18-1.1v-4.62c0-2.05 1.55-3.73 3.68-3.5h.22c.55-.03 1-.5 1-1.07Zm-38.58-.02c.6 0 1.1.5 1.1 1.1v8.02a1.1 1.1 0 0 1-2.2 0v-8.02c0-.6.49-1.1 1.1-1.1Zm12.02-.6a4.41 4.41 0 0 1 3.41-.3c.47.16.9.4 1.29.75.39.34.7.78.95 1.33.25.54.38 1.2.38 1.98v5.9c0 .35-.1.64-.31.86-.21.21-.49.32-.82.32-.33 0-.61-.1-.82-.32-.2-.22-.31-.5-.31-.86v-5.96c0-.7-.18-1.24-.54-1.63-.36-.39-.85-.58-1.51-.58s-1.15.2-1.5.58c-.35.39-.53.93-.53 1.63v5.96c0 .35-.1.64-.31.86-.21.21-.49.32-.82.32-.33 0-.61-.1-.82-.32-.2-.22-.31-.5-.31-.86v-5.96c0-.7-.18-1.24-.54-1.63-.35-.39-.85-.58-1.51-.58s-1.15.2-1.5.58c-.35.39-.53.93-.53 1.63v5.96c0 .35-.1.64-.31.86-.21.21-.49.32-.82.32-.33 0-.61-.1-.82-.32-.2-.22-.3-.5-.3-.86v-9c0-.35.1-.64.3-.85.2-.22.49-.32.82-.32.33 0 .61.1.82.32.15.15.24.34.28.57l.01.06.13-.13c.1-.08.19-.16.3-.23l.17-.11a3.67 3.67 0 0 1 1.91-.48 3.36 3.36 0 0 1 2.85 1.47l.1.14.16-.18c.25-.3.53-.55.82-.77l.23-.15ZM31.08 15.42c0 3.5-1.2 6.71-3.16 9.3l6.76 6.71c1 1 1 2.59 0 3.58-.48.52-1.16.75-1.8.75-.64 0-1.32-.27-1.8-.75l-6.8-6.76-.08-.08A15.49 15.49 0 0 1 0 15.41C0 6.92 6.96 0 15.52 0c8.56 0 15.56 6.91 15.56 15.42Zm-15.56 14.4c8.03 0 14.54-6.45 14.54-14.41S23.56.99 15.52.99A14.48 14.48 0 0 0 .97 15.41c0 7.96 6.51 14.41 14.55 14.41Z" fill="#1E2537"/><path fill-rule="evenodd" clip-rule="evenodd" d="M23.37 9.89c.96 0 1.74-.78 1.74-1.73a1.73 1.73 0 0 0-1.74-1.69c-.94 0-1.71.75-1.73 1.69 0 .95.77 1.73 1.73 1.73Zm-1.8-2.08-4.4-1.03 4.4 1.03Zm-4.4-1.03-1.71 5.18 1.7-5.18Zm1.74 14.7c-.87.86-2.27 1.03-3.44 1.03-1.18 0-2.58-.17-3.45-1.03h6.9ZM5.57 17.49a2.19 2.19 0 0 1 .13-4.06 2.21 2.21 0 0 1 2.44.65l-2.57 3.41Zm19.64-4.07a2.21 2.21 0 0 0-2.45.7l2.52 3.41a2.2 2.2 0 0 0-.07-4.1Z" fill="#fff"/><path fill-rule="evenodd" clip-rule="evenodd" d="M5 18.5c0 3.8 4.67 6.9 10.42 6.9 5.74 0 10.41-3.1 10.42-6.9 0-.25-.02-.49-.06-.73a2.6 2.6 0 0 0 1.34-2.28 2.63 2.63 0 0 0-4.43-1.93 13.32 13.32 0 0 0-6.66-1.95l1.43-4.32 3.74.87a2.17 2.17 0 0 0 4.35 0 2.17 2.17 0 0 0-4.18-.85l-4.1-.95-.4-.1-1.75 5.34c-2.68.05-5.11.77-6.92 1.93a2.64 2.64 0 0 0-4.39 1.96c0 .9.48 1.75 1.26 2.23-.05.26-.07.52-.07.78Zm.87 0c0-.28.03-.55.09-.82v-.01a5.56 5.56 0 0 1 2.5-3.3 12.64 12.64 0 0 1 6.96-1.9 12.6 12.6 0 0 1 7.19 2.06 5.51 5.51 0 0 1 2.27 3.19c.06.25.08.52.08.78 0 3.33-4.28 6.04-9.54 6.04-5.27 0-9.55-2.71-9.55-6.04Zm17.55-4.42a6.46 6.46 0 0 1 2.13 2.81c.44-.33.7-.85.7-1.4a1.76 1.76 0 0 0-2.83-1.4Zm-18.74 1.4a1.76 1.76 0 0 1 2.78-1.43 6.53 6.53 0 0 0-2.15 2.78 1.75 1.75 0 0 1-.63-1.34Zm18.7-8.61c-.72 0-1.3.58-1.3 1.29a1.3 1.3 0 0 0 2.6 0c0-.71-.59-1.3-1.3-1.3ZM11.7 21.78c.78.78 2.01 1.16 3.76 1.16 1.74 0 2.97-.38 3.75-1.16a.43.43 0 0 0-.2-.72.44.44 0 0 0-.41.11c-.62.61-1.64.9-3.14.9-1.5 0-2.53-.29-3.14-.9a.44.44 0 0 0-.62 0 .43.43 0 0 0 0 .61Z" fill="#1E2537"/><path fill-rule="evenodd" clip-rule="evenodd" d="M10.33 17.24c0-.88.74-1.62 1.63-1.62.89 0 1.6.74 1.6 1.62 0 .88-.71 1.6-1.6 1.6-.89 0-1.63-.72-1.63-1.6Zm7.03 0c0-.88.75-1.62 1.64-1.62.88 0 1.6.74 1.6 1.62 0 .88-.72 1.6-1.6 1.6-.9 0-1.64-.72-1.64-1.6Z" fill="#FF4500"/></svg>